<svg xmlns="http://www.w3.org/2000/svg" width="309.906" height="40" viewBox="0 0 309.906 40">
  <g id="Group_29" data-name="Group 29" transform="translate(-171.578 -9162.5)">
    <path id="Path_184" data-name="Path 184" d="M456.825,9163.276h4.647V9197.1h20.011v4.626H456.83Z" fill="#231815"/>
    <path id="Path_185" data-name="Path 185" d="M429.1,9162.5l12.311,12.311V9202.5h-4.621V9187.13H421.417v15.37h-4.611v-27.691Zm-.005,6.151-7.686,7.687v6.162h15.382v-6.153Z" fill="#231815"/>
    <path id="Path_186" data-name="Path 186" d="M390.1,9163.287h10.831v4.595h-9.268L380.9,9178.647v7.94l10.756,10.757h9.289v4.368H390.109L376.294,9187.9v-10.8Z" fill="#231815"/>
    <path id="Path_187" data-name="Path 187" d="M342.768,9163.269v4.634h9.24v29.2h-9.235v4.64h23.139V9197.1h-9.24v-29.206h9.236v-4.632Z" fill="#231815"/>
    <path id="Path_188" data-name="Path 188" d="M318.418,9163.287H307.587l-.007,4.377h4.631l4.642.221,10.767,10.742v7.721l-10.767,10.768-4.642,0h-4.619v4.595h10.831l13.809-13.81v-10.8Z" fill="#231815"/>
    <path id="Path_189" data-name="Path 189" d="M267.469,9163.276h24.655v4.609h-20v12.285h10.744v4.626H272.115v12.3h20.012v4.626H267.473Z" fill="#231815"/>
    <path id="Path_190" data-name="Path 190" d="M224.617,9163.295h3.117l9.24,9.217,9.221-9.244h3.145v38.465H244.7V9170.2l-7.723,8.078-7.7-7.344v30.77h-4.665Z" fill="#231815"/>
    <path id="Path_191" data-name="Path 191" d="M171.579,9163.283h4.6v7.684l7.7,7.7h1.544l7.705-7.705v-7.676h4.635v9.211L187,9183.269v18.448H182.34v-18.454L171.578,9172.5Z" fill="#231815"/>
    <rect id="Rectangle_7" data-name="Rectangle 7" width="4.564" height="33.351" transform="translate(307.581 9164.838)" fill="#231815"/>
  </g>
</svg>
